<svg xmlns="http://www.w3.org/2000/svg" viewBox="0 0 64 64">
  <!-- White rounded square background -->
  <rect x="2" y="2" width="60" height="60" rx="12" ry="12" fill="white" filter="drop-shadow(0px 2px 3px rgba(0,0,0,0.1))"/>
  <path fill="#4f39f6" d="M 32 6 C 23.716 6 17 12.716 17 21 C 17 27.143736 20.698333 32.417464 25.986328 34.736328 L 25.986328 52.087891 C 25.986328 52.926891 26.336125 53.727875 26.953125 54.296875 L 30.205078 57.296875 C 31.199078 58.213875 32.745734 58.161641 33.677734 57.181641 L 39.427734 51.132812 C 39.911734 50.684813 40.05425 49.976 39.78125 49.375 L 38.007812 45.46875 L 38.007812 45.373047 L 40.417969 42.386719 C 41.142969 41.487719 41.178812 40.215391 40.507812 39.275391 L 38.007812 35.777344 L 38.007812 34.738281 C 43.298813 32.420697 47 27.145915 47 21 C 47 12.716 40.284 6 32 6 z M 32 12 C 34.209 12 36 13.791 36 16 C 36 18.209 34.209 20 32 20 C 29.791 20 28 18.209 28 16 C 28 13.791 29.791 12 32 12 z"/>
</svg>
